# xmcd
#
# Track frame offsets:
#	150
#	15465
#	29308
#	45398
#	60302
#	74925
#	88290
#	98135
#	114545
#	126205
#	139058
#	152050
#	169828
#	186485
#	198383
#	210923
#	224555
#	237465
#
# Disc length: 3386 seconds
#
# Revision: 5
# Processed by: cddbd v1.5.2PL0 Copyright (c) Steve Scherf et al.
# Submitted via: audiograbber 1.83.01
#
DISCID=0a0d3812
DTITLE=Various Artist - All the Hits Volume 1 [cd B]
DYEAR=1995
DGENRE=Pop
TTITLE0=Gilbert O'sullivan - Nothing Rhymed
TTITLE1=Mccoys, (The) - Hang on Sloopy
TTITLE2=Petula Clarck - This is My Song
TTITLE3=Astrud Gilberto - the Girl From Ipanema
TTITLE4=Anita Ward - Ring My Bell
TTITLE5=Lynn Anderson - Rose Garden
TTITLE6=Shangri-Las, (The) - Remember (Walking in the Sand)
TTITLE7=Oliver - Good Morning Starshine
TTITLE8=Gerry and the Pacemakers - Don't Let the Sun Catch You Crying
TTITLE9=Tommy James and the Shondells - Mony Mony
TTITLE10=Jay and the Americans - Come A Little Bit Closer
TTITLE11=Sabrina - Boys
TTITLE12=Timmy Thomas - Why Can't We Live Together
TTITLE13=Joe Jones - You Talk Too Much
TTITLE14=Martha Reeves and the Vandellas - Heatwave
TTITLE15=Marmalade, (The) - Ob-La-Di, Ob-La-Da
TTITLE16=Everly Brothers, (The) - (Til') I Kissed You
TTITLE17=Ike and Tina Turner - Come Together
EXTD=
EXTT0=
EXTT1=
EXTT2=
EXTT3=
EXTT4=
EXTT5=
EXTT6=
EXTT7=
EXTT8=
EXTT9=
EXTT10=
EXTT11=
EXTT12=
EXTT13=
EXTT14=
EXTT15=
EXTT16=
EXTT17=
PLAYORDER=
